# Blender v2.80 (sub 75) OBJ File: ''
# www.blender.org
mtllib clap2.mtl
o Cube.001
v 0.149673 0.742687 1.231258
v 0.149673 0.738368 1.389143
v 0.166697 0.763678 1.234880
v 0.149673 1.078895 1.447910
v 0.149673 1.125196 1.297270
v 0.166697 1.104205 1.293647
v 0.149673 1.153271 -1.271257
v 0.166697 1.174263 -1.267635
v 0.149673 1.199572 -1.421898
v 0.149673 1.535781 -1.205246
v 0.149673 1.540099 -1.363131
v 0.166697 1.514790 -1.208868
v -0.126494 0.742687 1.231258
v -0.143518 0.763678 1.234880
v -0.126494 0.738368 1.389143
v -0.126494 1.125196 1.297270
v -0.126494 1.078895 1.447910
v -0.143518 1.104205 1.293647
v -0.126494 1.153271 -1.271257
v -0.126494 1.199572 -1.421898
v -0.143518 1.174263 -1.267635
v -0.126494 1.535781 -1.205246
v -0.143518 1.514790 -1.208868
v -0.126494 1.540099 -1.363131
v 0.090330 0.521157 -1.375783
v 0.096892 0.521157 -1.283257
v 0.090330 -1.077286 -1.283257
v 0.090330 -1.021260 -1.375783
v 0.096892 -1.021260 -1.283257
v 0.096892 0.521157 1.264032
v 0.090330 0.521157 1.356557
v 0.096892 -1.021260 1.264032
v 0.090330 -1.021260 1.356557
v 0.090330 -1.077286 1.264032
v -0.090330 0.521157 -1.375783
v -0.096892 0.521157 -1.283257
v -0.090330 0.577183 -1.283257
v -0.096892 -1.021260 -1.283257
v -0.090330 -1.021260 -1.375783
v -0.090330 -1.077286 -1.283257
v -0.096892 0.521157 1.264032
v -0.090330 0.521157 1.356557
v -0.090330 -1.077286 1.264032
v -0.090330 -1.021260 1.356557
v -0.096892 -1.021260 1.264032
v 0.096892 0.521157 -1.283257
v 0.090330 0.521157 -1.375783
v 0.090330 0.521157 1.356557
v 0.096892 0.521157 1.264032
v -0.090330 0.577183 -1.283257
v -0.090330 0.521157 -1.375783
v -0.096892 0.521157 -1.283257
v -0.096892 0.521157 1.264032
v -0.090330 0.521157 1.356557
v -0.132684 0.577183 -1.283257
v -0.132684 0.521157 -1.375783
v -0.143116 0.521157 -1.283257
v 0.164937 0.521157 -1.283257
v 0.154506 0.521157 -1.375783
v -0.143116 0.684792 -1.328946
v 0.154506 0.521157 1.356557
v 0.164937 0.521157 1.264032
v -0.132684 0.684791 -1.425651
v -0.132684 0.577183 -1.283257
v -0.132684 0.521157 -1.375783
v -0.143116 0.521157 -1.283257
v -0.132684 0.740817 -1.328946
v -0.143116 0.521157 1.264032
v -0.132684 0.521157 1.356557
v -0.132684 0.577183 -1.283257
v -0.132684 0.521157 -1.425651
v -0.143116 0.521157 -1.328946
v 0.164937 0.521157 -1.328946
v 0.154506 0.521157 -1.425651
v 0.154506 0.521157 1.430106
v 0.164937 0.521157 1.333401
v -0.132684 0.577183 -1.283257
v -0.132684 0.521157 -1.425651
v -0.143116 0.521157 -1.328946
v -0.143116 0.521157 1.333401
v -0.132684 0.521157 1.430106
v 0.164937 0.684792 -1.328946
v 0.154506 0.684791 -1.425651
v 0.154506 0.740817 -1.328946
v 0.154506 0.684791 1.430106
v 0.164937 0.684792 1.333401
v 0.154506 0.740817 1.333401
v -0.132684 0.740817 -1.328946
v -0.132684 0.684791 -1.425651
v -0.143116 0.684792 -1.328946
v -0.132684 0.740817 1.333401
v -0.143116 0.684792 1.333401
v -0.132684 0.684791 1.430106
vt 0.388719 0.763719
vt 0.388719 0.986281
vt 0.611281 0.986281
vt 0.611281 0.763719
vt 0.388719 0.513719
vt 0.388719 0.736281
vt 0.611281 0.736281
vt 0.611281 0.513719
vt 0.638719 0.513719
vt 0.638719 0.736281
vt 0.861281 0.736281
vt 0.861281 0.513719
vt 0.388719 0.013719
vt 0.388719 0.236281
vt 0.611281 0.236281
vt 0.611281 0.013719
vt 0.388719 0.263719
vt 0.388719 0.486281
vt 0.611281 0.486281
vt 0.611281 0.263719
vt 0.138719 0.736281
vt 0.125000 0.736281
vt 0.138719 0.750000
vt 0.611281 1.000000
vt 0.625000 0.986281
vt 0.138719 0.513719
vt 0.138719 0.500000
vt 0.125000 0.513719
vt 0.875000 0.513719
vt 0.861281 0.500000
vt 0.361281 0.736281
vt 0.361281 0.750000
vt 0.375000 0.736281
vt 0.625000 0.736281
vt 0.638719 0.750000
vt 0.361281 0.513719
vt 0.375000 0.513719
vt 0.361281 0.500000
vt 0.638719 0.500000
vt 0.625000 0.513719
vt 0.388719 1.000000
vt 0.875000 0.736281
vt 0.861281 0.750000
vt 0.383466 0.758466
vt 0.383466 0.991534
vt 0.616534 0.991534
vt 0.616534 0.758466
vt 0.383466 0.508466
vt 0.383466 0.741534
vt 0.616534 0.741534
vt 0.616534 0.508466
vt 0.383466 0.258466
vt 0.383466 0.491534
vt 0.616534 0.491534
vt 0.616534 0.258466
vt 0.366534 0.741534
vt 0.366534 0.741534
vt 0.366534 0.508466
vt 0.366534 0.508466
vt 0.133466 0.508466
vt 0.133466 0.741534
vt 0.866534 0.741534
vt 0.866534 0.741534
vt 0.866534 0.508466
vt 0.866534 0.508466
vt 0.625000 0.758466
vt 0.616534 0.750000
vt 0.875000 0.508466
vt 0.875000 0.508466
vt 0.866534 0.500000
vt 0.866534 0.500000
vt 0.125000 0.741534
vt 0.133466 0.750000
vt 0.366534 0.508466
vt 0.366534 0.500000
vt 0.366534 0.500000
vt 0.375000 0.741534
vt 0.383466 0.750000
vt 0.366534 0.500000
vt 0.375000 0.991534
vt 0.383466 1.000000
vt 0.375000 0.758466
vt 0.133466 0.500000
vt 0.616534 0.250000
vt 0.383466 0.250000
vt 0.633466 0.500000
vt 0.633466 0.508466
vt 0.616534 0.491534
vt 0.616534 0.258466
vt 0.616534 0.250000
vt 0.616534 1.000000
vt 0.616534 0.741534
vt 0.616534 0.508466
vt 0.625000 0.991534
vt 0.633466 0.741534
vt 0.866534 0.500000
vt 0.875000 0.508466
vt 0.616534 0.258466
vt 0.616534 0.250000
vt 0.866534 0.508466
vt 0.875000 0.508466
vt 0.866534 0.508466
vt 0.616534 0.741534
vt 0.616534 0.508466
vt 0.616534 0.491534
vt 0.616534 0.741534
vt 0.616534 0.508466
vt 0.616534 0.491534
vt 0.616534 0.258466
vt 0.866534 0.508466
vt 0.866534 0.500000
vt 0.866534 0.741534
vt 0.866534 0.741534
vt 0.866534 0.508466
vt 0.875000 0.508466
vt 0.366534 0.741534
vt 0.366534 0.741534
vt 0.366534 0.508466
vt 0.875000 0.508466
vt 0.866534 0.500000
vt 0.866534 0.500000
vt 0.366534 0.500000
vt 0.616534 0.508466
vt 0.616534 0.491534
vt 0.616534 0.258466
vt 0.866534 0.508466
vt 0.866534 0.500000
vt 0.866534 0.741534
vt 0.866534 0.508466
vt 0.875000 0.508466
vt 0.366534 0.741534
vt 0.366534 0.508466
vt 0.875000 0.508466
vt 0.866534 0.500000
vt 0.366534 0.500000
vt 0.616534 0.250000
vt 0.616534 0.250000
vt 0.383466 0.008466
vt 0.383466 0.241534
vt 0.616534 0.241534
vt 0.616534 0.008466
vt 0.866534 0.750000
vt 0.875000 0.741534
vt 0.366534 0.750000
vt 0.375000 0.741534
vt 0.625000 0.508466
vt 0.616534 0.500000
vt 0.383466 0.250000
vt 0.616534 0.250000
vt 0.375000 0.008466
vt 0.375000 0.241534
vt 0.625000 0.241534
vt 0.625000 0.008466
vt 0.616534 0.000000
vt 0.383466 0.000000
vt 0.616534 0.741534
vn 0.0000 -0.1701 0.9854
vn -1.0000 0.0000 0.0000
vn 0.0000 0.9868 0.1619
vn 1.0000 0.0000 0.0000
vn 0.0000 0.1701 -0.9854
vn 0.7780 -0.6280 -0.0172
vn 0.7787 0.5997 0.1843
vn 0.7787 -0.5997 -0.1843
vn 0.7780 0.6280 0.0172
vn -0.7780 -0.6280 -0.0172
vn -0.7787 0.5997 0.1843
vn -0.7787 -0.5997 -0.1843
vn -0.7780 0.6280 0.0172
vn 0.7812 -0.6161 -0.1011
vn 0.9941 -0.0184 0.1067
vn 0.7812 0.6161 0.1011
vn 0.9941 0.0184 -0.1067
vn 0.0000 -0.9559 -0.2938
vn 0.0000 0.9996 0.0273
vn -0.9941 0.0184 -0.1067
vn -0.7812 -0.6161 -0.1011
vn -0.7812 0.6161 0.1011
vn -0.9941 -0.0184 0.1067
vn 0.0000 -0.9996 -0.0273
vn 0.0000 0.9559 0.2938
vn 0.0000 -0.9868 -0.1619
vn 0.0000 1.0000 -0.0000
vn 0.0000 0.0000 -1.0000
vn 0.0000 0.0000 1.0000
vn -0.9908 0.1160 0.0703
vn -0.9908 0.1160 -0.0703
vn 0.9908 0.1160 0.0703
vn 0.9908 0.1160 -0.0703
vn 0.9932 0.1163 0.0000
vn 0.0000 0.8554 0.5180
vn -0.9975 0.0000 0.0707
vn 0.9975 0.0000 -0.0707
vn -0.9975 0.0000 -0.0707
vn 0.9975 0.0000 0.0707
vn 0.0000 0.8554 -0.5180
vn -0.9932 0.1163 0.0000
vn 0.0000 -0.8554 0.5180
vn 0.9995 -0.0301 0.0000
vn -0.9622 0.2725 -0.0000
vn -0.9831 0.1830 0.0000
vn 0.9942 0.0000 -0.1072
vn 0.9942 -0.0000 0.1072
vn -0.9458 0.0449 0.3217
vn -0.9942 -0.0000 0.1072
vn -0.9942 0.0000 -0.1072
vn 0.9831 -0.1830 0.0000
vn 0.9776 -0.1820 0.1055
vn 0.0000 -1.0000 -0.0000
vn -0.9776 -0.1820 0.1055
vn -0.9776 -0.1820 -0.1055
vn 0.9776 -0.1820 -0.1055
vn 0.0000 -0.8653 -0.5013
vn -0.9831 -0.1830 -0.0000
vn 0.0000 -0.8653 0.5013
vn 0.9458 -0.0449 -0.3217
usemtl Material
s off
f 15/1/1 2/2/1 4/3/1 17/4/1
f 21/5/2 14/6/2 18/7/2 23/8/2
f 22/9/3 16/10/3 5/11/3 10/12/3
f 3/13/4 8/14/4 12/15/4 6/16/4
f 9/17/5 20/18/5 24/19/5 11/20/5
f 1/21/6 3/22/6 2/23/6
f 4/3/7 6/24/7 5/25/7
f 7/26/8 9/27/8 8/28/8
f 10/12/9 12/29/9 11/30/9
f 13/31/10 15/32/10 14/33/10
f 16/10/11 18/34/11 17/35/11
f 19/36/12 21/37/12 20/38/12
f 22/9/13 24/39/13 23/40/13
f 7/26/14 8/28/14 3/22/14 1/21/14
f 2/2/15 3/41/15 6/24/15 4/3/15
f 5/11/16 6/42/16 12/29/16 10/12/16
f 11/20/17 12/15/17 8/14/17 9/17/17
f 19/36/18 20/38/18 9/27/18 7/26/18
f 10/12/19 11/30/19 24/39/19 22/9/19
f 23/8/20 24/19/20 20/18/20 21/5/20
f 13/31/21 14/6/21 21/5/21 19/36/21
f 22/9/22 23/8/22 18/7/22 16/10/22
f 17/4/23 18/7/23 14/6/23 15/1/23
f 1/21/24 2/23/24 15/32/24 13/31/24
f 16/10/25 17/35/25 4/43/25 5/11/25
f 7/26/26 1/21/26 13/31/26 19/36/26
f 40/44/27 43/45/27 34/46/27 27/47/27
f 45/48/4 38/49/4 36/50/4 41/51/4
f 33/52/28 44/53/28 42/54/28 31/55/28
f 30/56/29 49/57/29 46/58/29 26/59/29
f 29/60/2 32/61/2 30/56/2 26/59/2
f 25/62/29 47/63/29 51/64/29 35/65/29
f 27/47/30 29/66/30 28/67/30
f 37/68/29 50/69/29 52/70/29 36/71/29
f 32/61/31 34/72/31 33/73/31
f 46/58/27 58/74/27 59/75/27 47/76/27
f 38/49/32 40/77/32 39/78/32
f 26/59/29 46/58/29 47/76/29 25/79/29
f 43/45/33 45/80/33 44/81/33
f 40/44/34 38/82/34 45/80/34 43/45/34
f 27/47/35 28/67/35 39/78/35 40/44/35
f 26/59/36 25/79/36 28/83/36 29/60/36
f 44/53/37 45/48/37 41/51/37 42/54/37
f 31/55/38 30/84/38 32/85/38 33/52/38
f 35/65/39 36/71/39 38/86/39 39/87/39
f 42/54/29 54/88/29 48/89/29 31/55/29
f 31/55/29 48/89/29 49/90/29 30/84/29
f 43/45/40 44/81/40 33/91/40 34/46/40
f 36/50/29 52/92/29 53/93/29 41/51/29
f 41/51/29 53/93/29 54/88/29 42/54/29
f 34/46/41 32/94/41 29/66/41 27/47/41
f 39/87/29 28/95/29 25/62/29 35/65/29
f 36/71/28 57/96/28 55/97/28 37/68/28
f 48/89/27 61/98/27 62/99/27 49/90/27
f 51/64/40 65/100/40 64/101/40 50/69/40
f 35/65/27 56/102/27 57/96/27 36/71/27
f 52/92/27 66/103/27 68/104/27 53/93/27
f 53/93/27 68/104/27 69/105/27 54/88/27
f 54/88/29 69/105/29 61/98/29 48/89/29
f 37/68/42 55/97/42 56/102/42 35/65/42
f 35/65/29 51/64/29 50/69/29 37/68/29
f 66/103/43 79/106/43 80/107/43 68/104/43
f 68/104/27 80/107/27 81/108/27 69/105/27
f 69/105/27 81/108/27 75/109/27 61/98/27
f 56/102/27 71/110/27 72/111/27 57/96/27
f 59/112/27 74/113/27 78/114/27 65/100/27
f 55/97/2 70/115/2 71/110/2 56/102/2
f 62/116/44 76/117/44 73/118/44 58/74/44
f 64/101/45 77/119/45 79/120/45 66/121/45
f 58/74/27 73/118/27 74/122/27 59/75/27
f 50/69/29 64/101/29 66/121/29 52/70/29
f 49/57/27 62/116/27 58/74/27 46/58/27
f 47/63/28 59/112/28 65/100/28 51/64/28
f 80/107/46 92/123/46 93/124/46 81/108/46
f 81/108/28 93/124/28 85/125/28 75/109/28
f 71/110/47 63/126/47 60/127/47 72/111/47
f 74/113/29 83/128/29 89/129/29 78/114/29
f 70/115/2 67/130/2 63/126/2 71/110/2
f 76/117/2 86/131/2 82/132/2 73/118/2
f 77/119/48 88/133/48 90/134/48 79/120/48
f 73/118/49 82/132/49 83/135/49 74/122/49
f 75/109/50 85/125/50 86/136/50 76/137/50
f 57/96/51 72/111/51 70/115/51 55/97/51
f 65/100/4 78/114/4 77/119/4 64/101/4
f 61/98/27 75/109/27 76/137/27 62/99/27
f 63/126/52 67/130/52 60/127/52
f 84/138/53 87/139/53 91/140/53 88/141/53
f 83/128/54 82/142/54 84/143/54
f 86/131/55 85/144/55 87/145/55
f 92/123/56 91/146/56 93/147/56
f 87/139/57 85/148/57 93/149/57 91/140/57
f 84/138/58 82/150/58 86/151/58 87/139/58
f 91/140/51 92/152/51 90/153/51 88/141/51
f 88/141/59 89/154/59 83/155/59 84/138/59
f 79/106/4 90/156/4 92/123/4 80/107/4
f 72/111/60 60/127/60 67/130/60 70/115/60
f 78/114/4 89/129/4 88/133/4 77/119/4
