# Blender v2.80 (sub 75) OBJ File: ''
# www.blender.org
mtllib clap.mtl
o Cube.002
v -1.355103 0.530464 -0.081256
v -1.355103 0.530464 0.081256
v -1.419104 0.911897 0.081256
v -1.419104 0.911897 -0.081256
v 1.235887 0.965205 -0.091273
v -1.204660 0.555707 -0.091273
v -1.268660 0.937140 -0.091273
v 1.171886 1.346638 -0.091273
v 1.167941 1.370151 -0.081256
v -1.272606 0.960653 -0.081256
v -1.272606 0.960653 0.081256
v 1.167941 1.370151 0.081256
v -1.204660 0.555707 0.091273
v 1.235887 0.965205 0.091273
v 1.171886 1.346638 0.091273
v -1.268660 0.937140 0.091273
v 1.386330 0.990447 0.081256
v 1.386330 0.990447 -0.081256
v 1.322330 1.371881 -0.081256
v 1.322330 1.371881 0.081256
v -1.200715 0.532194 0.081256
v 1.239832 0.941692 0.081256
v -1.200715 0.532194 -0.081256
v 1.239832 0.941692 -0.081256
v 1.283257 -1.123402 -0.090330
v -1.264032 -1.123402 -0.090330
v -1.264032 -1.123402 0.090330
v 1.283257 -1.123402 0.090330
v -1.264032 -1.067376 -0.096892
v 1.283257 -1.067376 -0.096892
v 1.283257 0.475041 -0.096892
v -1.264032 0.475041 -0.096892
v -1.356557 -1.067376 0.090330
v -1.356557 -1.067376 -0.090330
v -1.356558 0.475041 -0.090330
v -1.356558 0.475041 0.090330
v 1.283257 0.531067 0.090330
v -1.264032 0.531067 0.090330
v -1.264032 0.531067 -0.090330
v 1.283257 0.531067 -0.090330
v 1.283257 -1.067376 0.096892
v -1.264032 -1.067376 0.096892
v -1.264032 0.475041 0.096892
v 1.283257 0.475041 0.096892
v 1.375783 0.475041 0.090330
v 1.375783 -1.067376 0.090330
v 1.375783 0.475041 -0.090330
v 1.375783 -1.067376 -0.090330
vt 0.388719 0.763719
vt 0.388719 0.986281
vt 0.611281 0.986281
vt 0.611281 0.763719
vt 0.388719 0.513719
vt 0.388719 0.736281
vt 0.611281 0.736281
vt 0.611281 0.513719
vt 0.638719 0.513719
vt 0.638719 0.736281
vt 0.861281 0.736281
vt 0.861281 0.513719
vt 0.388719 0.013719
vt 0.388719 0.236281
vt 0.611281 0.236281
vt 0.611281 0.013719
vt 0.388719 0.263719
vt 0.388719 0.486281
vt 0.611281 0.486281
vt 0.611281 0.263719
vt 0.138719 0.736281
vt 0.125000 0.736281
vt 0.138719 0.750000
vt 0.611281 1.000000
vt 0.625000 0.986281
vt 0.138719 0.513719
vt 0.138719 0.500000
vt 0.125000 0.513719
vt 0.875000 0.513719
vt 0.861281 0.500000
vt 0.361281 0.736281
vt 0.361281 0.750000
vt 0.375000 0.736281
vt 0.625000 0.736281
vt 0.638719 0.750000
vt 0.361281 0.513719
vt 0.375000 0.513719
vt 0.361281 0.500000
vt 0.638719 0.500000
vt 0.625000 0.513719
vt 0.388719 1.000000
vt 0.875000 0.736281
vt 0.861281 0.750000
vt 0.383466 0.758466
vt 0.383466 0.991534
vt 0.616534 0.991534
vt 0.616534 0.758466
vt 0.383466 0.508466
vt 0.383466 0.741534
vt 0.616534 0.741534
vt 0.616534 0.508466
vt 0.383466 0.258466
vt 0.383466 0.491534
vt 0.616534 0.491534
vt 0.616534 0.258466
vt 0.383466 0.008466
vt 0.383466 0.241534
vt 0.616534 0.241534
vt 0.616534 0.008466
vt 0.133466 0.508466
vt 0.133466 0.741534
vt 0.366534 0.741534
vt 0.366534 0.508466
vt 0.866534 0.741534
vt 0.866534 0.750000
vt 0.875000 0.741534
vt 0.625000 0.758466
vt 0.616534 0.750000
vt 0.366534 0.750000
vt 0.375000 0.741534
vt 0.125000 0.741534
vt 0.133466 0.750000
vt 0.866534 0.508466
vt 0.875000 0.508466
vt 0.866534 0.500000
vt 0.375000 0.741534
vt 0.383466 0.750000
vt 0.625000 0.508466
vt 0.616534 0.500000
vt 0.375000 0.991534
vt 0.383466 1.000000
vt 0.375000 0.758466
vt 0.366534 0.500000
vt 0.133466 0.500000
vt 0.616534 0.250000
vt 0.383466 0.250000
vt 0.633466 0.500000
vt 0.633466 0.508466
vt 0.383466 0.250000
vt 0.616534 0.250000
vt 0.375000 0.008466
vt 0.375000 0.241534
vt 0.616534 1.000000
vt 0.625000 0.241534
vt 0.625000 0.008466
vt 0.616534 0.000000
vt 0.383466 0.000000
vt 0.625000 0.991534
vt 0.633466 0.741534
vn -0.9862 -0.1655 0.0000
vn 0.0000 0.0000 -1.0000
vn -0.1655 0.9862 0.0000
vn -0.0000 -0.0000 1.0000
vn 0.9862 0.1655 0.0000
vn 0.0044 -0.3913 0.9202
vn -0.1236 0.3713 0.9202
vn 0.1236 -0.3713 0.9202
vn -0.0044 0.3913 0.9202
vn 0.0044 -0.3913 -0.9202
vn -0.1236 0.3713 -0.9203
vn 0.1236 -0.3713 -0.9202
vn -0.0044 0.3913 -0.9202
vn 0.0641 -0.3820 0.9219
vn -0.0646 -0.0108 0.9979
vn -0.0641 0.3820 0.9219
vn 0.0646 0.0108 0.9979
vn 0.3158 -0.9488 0.0000
vn -0.0112 0.9999 0.0000
vn 0.0646 0.0108 -0.9979
vn 0.0641 -0.3820 -0.9219
vn -0.0641 0.3820 -0.9219
vn -0.0646 -0.0108 -0.9979
vn 0.0112 -0.9999 0.0000
vn -0.3158 0.9488 0.0000
vn 0.1655 -0.9862 0.0000
vn -0.0000 1.0000 0.0000
vn 1.0000 0.0000 0.0000
vn 0.0000 -1.0000 0.0000
vn -0.0703 -0.1160 -0.9908
vn -0.0703 0.1160 -0.9908
vn 0.0703 -0.1160 -0.9908
vn 0.0703 0.1160 -0.9908
vn -0.0703 -0.1160 0.9908
vn -0.0703 0.1160 0.9908
vn 0.0703 -0.1160 0.9908
vn 0.0703 0.1160 0.9908
vn -0.0000 0.1163 0.9932
vn -0.5180 0.8554 0.0000
vn -0.0707 -0.0000 -0.9975
vn 0.0707 0.0000 0.9975
vn 0.0707 0.0000 -0.9975
vn -0.0707 -0.0000 0.9975
vn 0.5180 -0.8554 0.0000
vn 0.0000 -0.1163 -0.9932
vn 0.5180 0.8554 0.0000
vn -0.0000 -0.1163 0.9932
vn -0.5180 -0.8554 0.0000
vn 0.0000 0.1163 -0.9932
vn -1.0000 -0.0000 0.0000
usemtl Material.002
s 1
f 1/1/1 2/2/1 3/3/1 4/4/1
f 5/5/2 6/6/2 7/7/2 8/8/2
f 9/9/3 10/10/3 11/11/3 12/12/3
f 13/13/4 14/14/4 15/15/4 16/16/4
f 17/17/5 18/18/5 19/19/5 20/20/5
f 21/21/6 13/22/6 2/23/6
f 3/3/7 16/24/7 11/25/7
f 22/26/8 17/27/8 14/28/8
f 12/12/9 15/29/9 20/30/9
f 23/31/10 1/32/10 6/33/10
f 10/10/11 7/34/11 4/35/11
f 24/36/12 5/37/12 18/38/12
f 9/9/13 19/39/13 8/40/13
f 22/26/14 14/28/14 13/22/14 21/21/14
f 2/2/15 13/41/15 16/24/15 3/3/15
f 11/11/16 16/42/16 15/29/16 12/12/16
f 20/20/17 15/15/17 14/14/17 17/17/17
f 24/36/18 18/38/18 17/27/18 22/26/18
f 12/12/19 20/30/19 19/39/19 9/9/19
f 8/8/20 19/19/20 18/18/20 5/5/20
f 23/31/21 6/6/21 5/5/21 24/36/21
f 9/9/22 8/8/22 7/7/22 10/10/22
f 4/4/23 7/7/23 6/6/23 1/1/23
f 21/21/24 2/23/24 1/32/24 23/31/24
f 10/10/25 4/35/25 3/43/25 11/11/25
f 22/26/26 21/21/26 23/31/26 24/36/26
f 25/44/27 26/45/27 27/46/27 28/47/27
f 29/48/4 30/49/4 31/50/4 32/51/4
f 33/52/28 34/53/28 35/54/28 36/55/28
f 37/56/29 38/57/29 39/58/29 40/59/29
f 41/60/2 42/61/2 43/62/2 44/63/2
f 45/64/30 44/65/30 37/66/30
f 28/47/31 41/67/31 46/68/31
f 43/62/32 36/69/32 38/70/32
f 42/61/33 27/71/33 33/72/33
f 47/73/34 40/74/34 31/75/34
f 30/49/35 25/76/35 48/77/35
f 32/51/36 39/78/36 35/79/36
f 26/45/37 29/80/37 34/81/37
f 25/44/38 30/82/38 29/80/38 26/45/38
f 28/47/39 46/68/39 48/77/39 25/44/39
f 44/63/40 45/83/40 46/84/40 41/60/40
f 34/53/41 29/48/41 32/51/41 35/54/41
f 36/55/42 43/85/42 42/86/42 33/52/42
f 47/73/43 31/75/43 30/87/43 48/88/43
f 38/57/44 36/89/44 35/90/44 39/58/44
f 37/56/45 44/91/45 43/92/45 38/57/45
f 26/45/46 34/81/46 33/93/46 27/46/46
f 39/58/47 32/94/47 31/95/47 40/59/47
f 40/59/48 47/96/48 45/97/48 37/56/48
f 27/46/49 42/98/49 41/67/49 28/47/49
f 48/88/50 46/99/50 45/64/50 47/73/50
