# Blender v2.80 (sub 75) OBJ File: ''
# www.blender.org
o Cube.001_Cube.004
v -1.231317 -0.675940 -0.059485
v -1.231317 0.668139 -0.059485
v -1.231317 -0.675940 0.059485
v -1.231317 0.668139 0.059485
v 1.231317 -0.675940 -0.059485
v 1.231317 0.668139 -0.059485
v 1.231317 -0.675940 0.059485
v 1.231317 0.668139 0.059485
v 1.227758 0.668078 0.059628
v -1.226055 0.668078 0.059627
v 0.001510 0.009971 0.256969
v -1.226055 0.668362 0.102270
v 1.227758 0.668362 0.102270
v 0.001510 0.022975 0.300127
vt 0.375000 0.000000
vt 0.375000 0.250000
vt 0.625000 0.250000
vt 0.625000 0.000000
vt 0.375000 0.500000
vt 0.625000 0.500000
vt 0.375000 0.750000
vt 0.625000 0.750000
vt 0.375000 1.000000
vt 0.625000 1.000000
vt 0.125000 0.500000
vt 0.125000 0.750000
vt 0.875000 0.750000
vt 0.875000 0.500000
vt 0.000000 0.000000
vt 0.000000 0.000000
vt 0.000000 0.000000
vt 0.000000 0.000000
vt 0.000000 0.000000
vt 0.625000 0.750000
vt 0.625000 0.750000
vt 0.875000 0.750000
vt 0.875000 0.750000
vt 0.000000 0.000000
vn -1.0000 0.0000 0.0000
vn 0.0000 0.0000 1.0000
vn 1.0000 0.0000 0.0000
vn 0.0000 0.0000 -1.0000
vn 0.0000 -1.0000 0.0000
vn 0.0000 1.0000 0.0000
vn -0.0000 0.2931 0.9561
vn -0.4815 -0.8661 0.1341
vn 0.0000 1.0000 -0.0067
vn 0.0000 -0.2872 -0.9579
vn 0.4819 -0.8659 0.1341
s off
f 1/1/1 3/2/1 4/3/1 2/4/1
f 3/2/2 7/5/2 8/6/2 4/3/2
f 7/5/3 5/7/3 6/8/3 8/6/3
f 5/7/4 1/9/4 2/10/4 6/8/4
f 3/11/5 1/12/5 5/7/5 7/5/5
f 8/6/6 6/8/6 2/13/6 4/14/6
f 14/15/7 13/16/7 12/17/7
f 11/18/8 14/15/8 12/17/8 10/19/8
f 10/20/9 12/21/9 13/22/9 9/23/9
f 9/24/10 11/18/10 10/19/10
f 11/18/11 9/23/11 13/16/11 14/15/11
